<?xml version="1.0" encoding="UTF-8"?>
<svg version="1.1" xmlns="http://www.w3.org/2000/svg" width="915" height="914">
<path d="M0 0 C1.93805409 -0.00891337 1.93805409 -0.00891337 3.91526079 -0.0180068 C7.45459682 -0.03392401 10.99385129 -0.03771328 14.53321886 -0.03920174 C18.37015929 -0.04294284 22.2070593 -0.05805781 26.04397583 -0.07147217 C34.4173343 -0.09849021 42.79067344 -0.11066757 51.16406822 -0.11949348 C56.41370921 -0.1250489 61.66334301 -0.1335294 66.91297913 -0.14250183 C81.50529261 -0.16687772 96.09760039 -0.18747174 110.68993378 -0.19425201 C111.62173164 -0.19469115 112.5535295 -0.19513028 113.51356366 -0.19558272 C114.44736261 -0.19601927 115.38116155 -0.19645583 116.34325743 -0.19690561 C118.23490111 -0.19779248 120.1265448 -0.19868561 122.01818848 -0.19958496 C122.95647257 -0.20002782 123.89475667 -0.20047068 124.86147362 -0.20092696 C140.00473368 -0.20879306 155.1477995 -0.24361343 170.29098481 -0.29030401 C185.91407698 -0.33807656 201.53707253 -0.36267158 217.16023874 -0.36498785 C225.90109834 -0.36680324 234.64170297 -0.37800581 243.38249207 -0.41462708 C312.4811419 -0.69252369 312.4811419 -0.69252369 345.31018066 6.28088379 C348.04519561 6.81735756 350.78361487 7.3352908 353.52246094 7.85180664 C392.00365326 15.1429092 429.63829121 26.92829773 464.31018066 45.28088379 C465.28132812 45.79038574 465.28132812 45.79038574 466.27209473 46.31018066 C495.1698699 61.59142662 522.71265898 84.02299441 542.31018066 110.28088379 C542.75780762 110.87916992 543.20543457 111.47745605 543.66662598 112.09387207 C555.30229207 127.76980782 565.07322373 144.58848517 573.31018066 162.28088379 C573.65758301 163.02402832 574.00498535 163.76717285 574.36291504 164.53283691 C586.55645066 190.95581267 594.49368463 218.94707323 600.85539103 247.27514398 C601.15868794 248.61276174 601.48203531 249.9459897 601.82516241 251.27394831 C603.73923585 259.39601523 603.60135025 267.53166346 603.59106445 275.82223511 C603.59623912 277.49795637 603.60226748 279.17367518 603.60907125 280.84939063 C603.625133 285.43599623 603.62878602 290.02253909 603.63026619 294.60916948 C603.63398129 299.56392102 603.6490835 304.51864053 603.66253662 309.47337341 C603.6896541 320.30282383 603.70174656 331.13225939 603.71055794 341.96173811 C603.71609417 348.73510137 603.72457122 355.50845896 603.73356628 362.28181839 C603.75795097 381.06533893 603.77854598 399.84885495 603.78531647 418.63239098 C603.7857556 419.83374903 603.78619473 421.03510708 603.78664717 422.27286992 C603.78708373 423.47698979 603.78752028 424.68110965 603.78797007 425.921718 C603.78885697 428.36142691 603.7897501 430.80113582 603.79064941 433.24084473 C603.79109227 434.45100646 603.79153513 435.6611682 603.79199141 436.9080015 C603.79987275 456.47886092 603.83473624 476.04957073 603.88136846 495.62037246 C603.92894875 515.75313108 603.95372731 535.88581493 603.9560523 556.01863062 C603.95787787 567.30615743 603.96917955 578.59348959 604.00569153 589.88096237 C604.03670202 599.50118691 604.04661352 609.1211567 604.03021532 618.7414218 C604.0224735 623.63819647 604.02390461 628.53445986 604.05233002 633.43116951 C604.17172154 655.26732102 603.11352134 675.09541464 597.31018066 696.28088379 C596.72790091 698.50155846 596.14695871 700.72258428 595.56735992 702.94396019 C589.67607146 725.3923797 582.45255664 747.38703555 572.31018066 768.28088379 C571.97663574 768.98213379 571.64309082 769.68338379 571.29943848 770.40588379 C553.48119931 807.85078043 527.44108814 841.35346145 493.31018066 865.28088379 C492.67128906 865.73253906 492.03239746 866.18419434 491.37414551 866.64953613 C482.05681362 873.18822514 472.3419537 878.91400968 462.31018066 884.28088379 C461.70722168 884.60766113 461.1042627 884.93443848 460.48303223 885.27111816 C438.34350054 897.18032615 414.46597309 905.52537078 390.31018066 912.28088379 C389.09593212 912.62341196 387.88168357 912.96594014 386.63063961 913.31884795 C382.43301039 914.35732505 378.35192753 914.56801115 374.04099178 914.55211926 C373.24413614 914.55712331 372.4472805 914.56212737 371.62627771 914.56728306 C368.96340048 914.58156826 366.30071489 914.58176652 363.63780212 914.58195496 C361.7060821 914.58927463 359.77436513 914.59743963 357.8426519 914.60637599 C352.53903191 914.62830563 347.23545272 914.63771555 341.931795 914.64494646 C336.20870438 914.65482564 330.48565312 914.676011 324.7625885 914.69544983 C310.93844802 914.73970088 297.11429904 914.76443257 283.29010758 914.78623769 C278.07698454 914.79469929 272.86386385 914.8042938 267.65074281 914.81389266 C244.64578292 914.85607583 221.64082357 914.89204403 198.63583279 914.91145611 C193.00701834 914.91628213 187.37820396 914.92117301 181.74938965 914.92614746 C181.05014052 914.92675852 180.35089139 914.92736958 179.63045289 914.92799915 C157.00762067 914.9480051 134.38504787 915.00230163 111.76233345 915.07662493 C87.80325159 915.15519367 63.84432906 915.20036976 39.88511616 915.20902091 C26.84182694 915.21457893 13.79893373 915.23480591 0.75576591 915.29358482 C-10.3627912 915.34359492 -21.48086455 915.36220468 -32.59952367 915.34142258 C-38.26037264 915.33177026 -43.92021813 915.3359724 -49.58092117 915.38064957 C-74.93011776 915.56991831 -96.78778995 914.20712063 -120.68981934 905.28088379 C-122.352672 904.70475849 -124.01739162 904.13396809 -125.68465519 903.57073498 C-129.18578411 902.37198157 -132.62435952 901.08014506 -136.06481934 899.71838379 C-137.25849121 899.25424072 -138.45216309 898.79009766 -139.68200684 898.31188965 C-181.8421498 881.72565406 -222.3175323 854.955852 -249.68981934 818.28088379 C-250.36125977 817.38345459 -250.36125977 817.38345459 -251.04626465 816.46789551 C-262.68193075 800.79195976 -272.4528624 783.97328241 -280.68981934 766.28088379 C-281.03722168 765.53773926 -281.38462402 764.79459473 -281.74255371 764.02893066 C-291.76881621 742.30236183 -298.84318408 719.57662362 -304.62731934 696.40588379 C-304.81286377 695.66442108 -304.9984082 694.92295837 -305.1895752 694.1590271 C-306.41807383 689.21319229 -307.6234548 684.26447489 -308.68981934 679.28088379 C-308.93421421 678.17154423 -309.17860907 677.06220467 -309.43040985 675.91924876 C-311.47437902 665.98251328 -312.12452879 656.5663715 -312.09095764 646.44233704 C-312.09657811 644.80752094 -312.10348657 643.17270886 -312.11155361 641.53790301 C-312.1297291 637.09216672 -312.12952819 632.64660116 -312.12597048 628.2008363 C-312.12535386 623.38726767 -312.14195865 618.57375169 -312.15614319 613.76020813 C-312.180969 604.34518179 -312.18930355 594.93021182 -312.19098032 585.51515547 C-312.19241079 577.85130433 -312.19859982 570.18747163 -312.2080822 562.52362633 C-312.23448061 540.74071526 -312.24834429 518.95784837 -312.24609078 497.17492119 C-312.24597091 496.00276238 -312.24585104 494.83060358 -312.24572754 493.6229248 C-312.24554358 491.86251033 -312.24554358 491.86251033 -312.2453559 490.06653192 C-312.24413831 471.07547585 -312.27280718 452.08459872 -312.31514264 433.09359435 C-312.35838331 413.54033054 -312.37894484 393.9871537 -312.37636131 374.43384093 C-312.37537027 363.47781319 -312.38339509 352.52197288 -312.41589546 341.56598854 C-312.44340862 332.23212125 -312.44957631 322.89852626 -312.42936719 313.56463567 C-312.41966843 308.81554128 -312.41904159 304.0669672 -312.44542694 299.3179245 C-312.55933492 277.43664804 -311.2167814 257.54266996 -305.68981934 236.28088379 C-305.11821164 233.99040203 -304.54770225 231.6996459 -303.97831059 229.40861225 C-298.05308868 205.69263433 -290.43377446 182.26008806 -279.68981934 160.28088379 C-279.02662119 158.88916521 -278.36385042 157.49724289 -277.70153809 156.10510254 C-260.05673842 119.48573738 -234.10976513 86.70988748 -200.68981934 63.28088379 C-200.05092773 62.82922852 -199.41203613 62.37757324 -198.75378418 61.91223145 C-189.43645229 55.37354244 -179.72159237 49.6477579 -169.68981934 44.28088379 C-169.08686035 43.95410645 -168.48390137 43.6273291 -167.8626709 43.29064941 C-125.07187628 20.27279699 -76.42963867 9.31467265 -28.68981934 2.28088379 C-27.62479958 2.11879189 -26.55977983 1.95669999 -25.46248674 1.78969622 C-16.92953177 0.55980528 -8.63532394 -0.012738 0 0 Z " fill="#20282F" transform="translate(311.6898193359375,-0.2808837890625)"/>
<path d="M0 0 C0.51272461 0.40589355 1.02544922 0.81178711 1.55371094 1.22998047 C26.07919992 20.79881657 42.95424932 46.750031 50.75 77.1875 C50.96100342 78.00694092 51.17200684 78.82638184 51.3894043 79.6706543 C60.35234439 116.34993274 51.88917255 154.09605633 33 186 C30.54385492 189.86926965 27.89962457 193.45313781 25 197 C24.55398438 197.54994629 24.10796875 198.09989258 23.6484375 198.66650391 C0.04298632 227.59738274 -32.85587107 245.9355515 -69.98046875 250.6875 C-107.45001156 254.10529712 -143.88233792 244.10135874 -173.5625 220.8125 C-185.25321462 210.81200918 -195.80995091 200.06532993 -204 187 C-204.38881348 186.38044434 -204.77762695 185.76088867 -205.17822266 185.12255859 C-224.64178473 153.53336576 -231.31767233 115.27105207 -223 79 C-222.8443457 78.31164062 -222.68869141 77.62328125 -222.52832031 76.9140625 C-218.48166664 59.79049808 -210.60476638 43.0344825 -200 29 C-199.3503125 28.12988281 -198.700625 27.25976562 -198.03125 26.36328125 C-174.21878733 -4.06869064 -142.40637442 -21.5488048 -104.75 -28.609375 C-67.33881101 -32.50637385 -29.69906019 -23.64925163 0 0 Z " fill="#373533" transform="translate(306,343)"/>
<path d="M0 0 C26.9686974 24.58150019 45.62760622 56.93958472 48 94 C49.81198118 133.17600392 38.75985795 170.56762785 12.22216797 199.96972656 C-5.66893986 219.34131776 -26.25472412 231.45602852 -51 240 C-51.86753906 240.30679687 -52.73507812 240.61359375 -53.62890625 240.9296875 C-87.94068435 252.1927754 -125.78636888 246.02470291 -157.5390625 230.328125 C-175.54756295 221.13003064 -191.84167611 207.07260443 -204 191 C-204.71671875 190.08347656 -205.4334375 189.16695312 -206.171875 188.22265625 C-216.84542031 173.82093998 -224.80409392 156.42097714 -229 139 C-229.23904053 138.01580078 -229.23904053 138.01580078 -229.48291016 137.01171875 C-237.81776881 101.09714758 -230.4682989 62.40383815 -211.42675781 31.20141602 C-207.75426289 25.40129304 -203.5286362 20.15519007 -199 15 C-198.31550781 14.18273437 -197.63101563 13.36546875 -196.92578125 12.5234375 C-174.89549242 -13.13105781 -141.73433292 -30.41644921 -108.08203125 -33.7578125 C-68.84225609 -36.4066665 -29.83270216 -26.57735514 0 0 Z " fill="#40BBF2" transform="translate(788,348)"/>
<path d="M0 0 C1.93805409 -0.00891337 1.93805409 -0.00891337 3.91526079 -0.0180068 C7.45459682 -0.03392401 10.99385129 -0.03771328 14.53321886 -0.03920174 C18.37015929 -0.04294284 22.2070593 -0.05805781 26.04397583 -0.07147217 C34.4173343 -0.09849021 42.79067344 -0.11066757 51.16406822 -0.11949348 C56.41370921 -0.1250489 61.66334301 -0.1335294 66.91297913 -0.14250183 C81.50529261 -0.16687772 96.09760039 -0.18747174 110.68993378 -0.19425201 C111.62173164 -0.19469115 112.5535295 -0.19513028 113.51356366 -0.19558272 C114.44736261 -0.19601927 115.38116155 -0.19645583 116.34325743 -0.19690561 C118.23490111 -0.19779248 120.1265448 -0.19868561 122.01818848 -0.19958496 C122.95647257 -0.20002782 123.89475667 -0.20047068 124.86147362 -0.20092696 C140.00473368 -0.20879306 155.1477995 -0.24361343 170.29098481 -0.29030401 C185.91407698 -0.33807656 201.53707253 -0.36267158 217.16023874 -0.36498785 C225.90109834 -0.36680324 234.64170297 -0.37800581 243.38249207 -0.41462708 C312.4811419 -0.69252369 312.4811419 -0.69252369 345.31018066 6.28088379 C348.04519561 6.81735756 350.78361487 7.3352908 353.52246094 7.85180664 C392.00365326 15.1429092 429.63829121 26.92829773 464.31018066 45.28088379 C465.28132812 45.79038574 465.28132812 45.79038574 466.27209473 46.31018066 C495.1698699 61.59142662 522.71265898 84.02299441 542.31018066 110.28088379 C542.75780762 110.87916992 543.20543457 111.47745605 543.66662598 112.09387207 C555.30229207 127.76980782 565.07322373 144.58848517 573.31018066 162.28088379 C573.65758301 163.02402832 574.00498535 163.76717285 574.36291504 164.53283691 C586.55645066 190.95581267 594.49368463 218.94707323 600.85539103 247.27514398 C601.15868794 248.61276174 601.48203531 249.9459897 601.82516241 251.27394831 C603.73923585 259.39601523 603.60135025 267.53166346 603.59106445 275.82223511 C603.59623912 277.49795637 603.60226748 279.17367518 603.60907125 280.84939063 C603.625133 285.43599623 603.62878602 290.02253909 603.63026619 294.60916948 C603.63398129 299.56392102 603.6490835 304.51864053 603.66253662 309.47337341 C603.6896541 320.30282383 603.70174656 331.13225939 603.71055794 341.96173811 C603.71609417 348.73510137 603.72457122 355.50845896 603.73356628 362.28181839 C603.75795097 381.06533893 603.77854598 399.84885495 603.78531647 418.63239098 C603.7857556 419.83374903 603.78619473 421.03510708 603.78664717 422.27286992 C603.78708373 423.47698979 603.78752028 424.68110965 603.78797007 425.921718 C603.78885697 428.36142691 603.7897501 430.80113582 603.79064941 433.24084473 C603.79109227 434.45100646 603.79153513 435.6611682 603.79199141 436.9080015 C603.79987275 456.47886092 603.83473624 476.04957073 603.88136846 495.62037246 C603.92894875 515.75313108 603.95372731 535.88581493 603.9560523 556.01863062 C603.95787787 567.30615743 603.96917955 578.59348959 604.00569153 589.88096237 C604.03670202 599.50118691 604.04661352 609.1211567 604.03021532 618.7414218 C604.0224735 623.63819647 604.02390461 628.53445986 604.05233002 633.43116951 C604.17172154 655.26732102 603.11352134 675.09541464 597.31018066 696.28088379 C596.72790091 698.50155846 596.14695871 700.72258428 595.56735992 702.94396019 C589.67607146 725.3923797 582.45255664 747.38703555 572.31018066 768.28088379 C571.97663574 768.98213379 571.64309082 769.68338379 571.29943848 770.40588379 C553.48119931 807.85078043 527.44108814 841.35346145 493.31018066 865.28088379 C492.67128906 865.73253906 492.03239746 866.18419434 491.37414551 866.64953613 C482.05681362 873.18822514 472.3419537 878.91400968 462.31018066 884.28088379 C461.70722168 884.60766113 461.1042627 884.93443848 460.48303223 885.27111816 C438.34350054 897.18032615 414.46597309 905.52537078 390.31018066 912.28088379 C389.09593212 912.62341196 387.88168357 912.96594014 386.63063961 913.31884795 C382.43301039 914.35732505 378.35192753 914.56801115 374.04099178 914.55211926 C373.24413614 914.55712331 372.4472805 914.56212737 371.62627771 914.56728306 C368.96340048 914.58156826 366.30071489 914.58176652 363.63780212 914.58195496 C361.7060821 914.58927463 359.77436513 914.59743963 357.8426519 914.60637599 C352.53903191 914.62830563 347.23545272 914.63771555 341.931795 914.64494646 C336.20870438 914.65482564 330.48565312 914.676011 324.7625885 914.69544983 C310.93844802 914.73970088 297.11429904 914.76443257 283.29010758 914.78623769 C278.07698454 914.79469929 272.86386385 914.8042938 267.65074281 914.81389266 C244.64578292 914.85607583 221.64082357 914.89204403 198.63583279 914.91145611 C193.00701834 914.91628213 187.37820396 914.92117301 181.74938965 914.92614746 C181.05014052 914.92675852 180.35089139 914.92736958 179.63045289 914.92799915 C157.00762067 914.9480051 134.38504787 915.00230163 111.76233345 915.07662493 C87.80325159 915.15519367 63.84432906 915.20036976 39.88511616 915.20902091 C26.84182694 915.21457893 13.79893373 915.23480591 0.75576591 915.29358482 C-10.3627912 915.34359492 -21.48086455 915.36220468 -32.59952367 915.34142258 C-38.26037264 915.33177026 -43.92021813 915.3359724 -49.58092117 915.38064957 C-74.93011776 915.56991831 -96.78778995 914.20712063 -120.68981934 905.28088379 C-122.352672 904.70475849 -124.01739162 904.13396809 -125.68465519 903.57073498 C-129.18578411 902.37198157 -132.62435952 901.08014506 -136.06481934 899.71838379 C-137.25849121 899.25424072 -138.45216309 898.79009766 -139.68200684 898.31188965 C-181.8421498 881.72565406 -222.3175323 854.955852 -249.68981934 818.28088379 C-250.36125977 817.38345459 -250.36125977 817.38345459 -251.04626465 816.46789551 C-262.68193075 800.79195976 -272.4528624 783.97328241 -280.68981934 766.28088379 C-281.03722168 765.53773926 -281.38462402 764.79459473 -281.74255371 764.02893066 C-291.76881621 742.30236183 -298.84318408 719.57662362 -304.62731934 696.40588379 C-304.81286377 695.66442108 -304.9984082 694.92295837 -305.1895752 694.1590271 C-306.41807383 689.21319229 -307.6234548 684.26447489 -308.68981934 679.28088379 C-308.93421421 678.17154423 -309.17860907 677.06220467 -309.43040985 675.91924876 C-311.47437902 665.98251328 -312.12452879 656.5663715 -312.09095764 646.44233704 C-312.09657811 644.80752094 -312.10348657 643.17270886 -312.11155361 641.53790301 C-312.1297291 637.09216672 -312.12952819 632.64660116 -312.12597048 628.2008363 C-312.12535386 623.38726767 -312.14195865 618.57375169 -312.15614319 613.76020813 C-312.180969 604.34518179 -312.18930355 594.93021182 -312.19098032 585.51515547 C-312.19241079 577.85130433 -312.19859982 570.18747163 -312.2080822 562.52362633 C-312.23448061 540.74071526 -312.24834429 518.95784837 -312.24609078 497.17492119 C-312.24597091 496.00276238 -312.24585104 494.83060358 -312.24572754 493.6229248 C-312.24554358 491.86251033 -312.24554358 491.86251033 -312.2453559 490.06653192 C-312.24413831 471.07547585 -312.27280718 452.08459872 -312.31514264 433.09359435 C-312.35838331 413.54033054 -312.37894484 393.9871537 -312.37636131 374.43384093 C-312.37537027 363.47781319 -312.38339509 352.52197288 -312.41589546 341.56598854 C-312.44340862 332.23212125 -312.44957631 322.89852626 -312.42936719 313.56463567 C-312.41966843 308.81554128 -312.41904159 304.0669672 -312.44542694 299.3179245 C-312.55933492 277.43664804 -311.2167814 257.54266996 -305.68981934 236.28088379 C-305.11821164 233.99040203 -304.54770225 231.6996459 -303.97831059 229.40861225 C-298.05308868 205.69263433 -290.43377446 182.26008806 -279.68981934 160.28088379 C-279.02662119 158.88916521 -278.36385042 157.49724289 -277.70153809 156.10510254 C-260.05673842 119.48573738 -234.10976513 86.70988748 -200.68981934 63.28088379 C-200.05092773 62.82922852 -199.41203613 62.37757324 -198.75378418 61.91223145 C-189.43645229 55.37354244 -179.72159237 49.6477579 -169.68981934 44.28088379 C-169.08686035 43.95410645 -168.48390137 43.6273291 -167.8626709 43.29064941 C-125.07187628 20.27279699 -76.42963867 9.31467265 -28.68981934 2.28088379 C-27.62479958 2.11879189 -26.55977983 1.95669999 -25.46248674 1.78969622 C-16.92953177 0.55980528 -8.63532394 -0.012738 0 0 Z M49.31018066 10.28088379 C48.17835358 10.356586 47.04652649 10.43228821 45.88040161 10.51028442 C39.72344572 10.93481198 33.57883756 11.44595908 27.43518066 12.03088379 C26.55002777 12.11325287 25.66487488 12.19562195 24.75289917 12.28048706 C-32.07590398 17.61768853 -89.86675505 27.35981882 -141.68981934 52.28088379 C-142.38720215 52.60911133 -143.08458496 52.93733887 -143.80310059 53.2755127 C-175.94221787 68.4156179 -205.99169539 90.97072208 -227.68981934 119.28088379 C-228.1040918 119.81342773 -228.51836426 120.34597168 -228.94519043 120.89465332 C-280.20124131 187.06638579 -293.50487952 274.6732871 -299.37731934 355.96838379 C-299.43834839 356.81214569 -299.49937744 357.65590759 -299.56225586 358.52523804 C-301.15561973 380.92691424 -301.85043694 403.29725882 -301.85778809 425.75354004 C-301.86101895 428.13687661 -301.86438422 430.52021299 -301.86787415 432.90354919 C-301.87380751 437.86925718 -301.87572027 442.83494791 -301.87512207 447.80065918 C-301.87504118 452.80232386 -301.88193483 457.80389623 -301.89562988 462.80554199 C-301.97529639 492.36006041 -301.71429028 521.78875254 -299.68981934 551.28088379 C-299.63606329 552.07098091 -299.58230724 552.86107803 -299.52692223 553.67511749 C-296.64389734 595.88488896 -291.58434112 638.32588537 -280.68981934 679.28088379 C-280.37029297 680.48470703 -280.0507666 681.68853027 -279.72155762 682.92883301 C-264.79139259 738.372586 -238.70032115 792.10753933 -192.68981934 828.28088379 C-191.2454248 829.45070801 -191.2454248 829.45070801 -189.77185059 830.64416504 C-127.41619719 880.19675652 -43.72271619 894.6742892 33.66003418 901.06085205 C35.41796422 901.2068064 37.17562323 901.35606523 38.9329834 901.50872803 C72.70494807 904.44152372 106.49512673 904.57093837 140.36974716 904.59095764 C143.81112997 904.59334116 147.25249928 904.5986558 150.69387817 904.60424805 C190.11094882 904.65101494 229.49341506 903.8631579 268.74768066 900.03088379 C269.8635556 899.92483826 270.97943054 899.81879272 272.12911987 899.70953369 C292.67412056 897.74407806 313.02388402 895.08232265 333.31018066 891.28088379 C334.02033325 891.14853333 334.73048584 891.01618286 335.4621582 890.87982178 C403.8411055 878.05707046 474.01004644 851.62821458 518.31018066 795.28088379 C519.09006348 794.3179541 519.86994629 793.35502441 520.67346191 792.36291504 C539.03682164 769.25495519 552.13782571 742.87127831 562.31018066 715.28088379 C562.63325195 714.40818848 562.95632324 713.53549316 563.28918457 712.63635254 C582.1259498 660.95831501 588.52783641 605.01254825 592.43518066 550.46838379 C592.54865845 548.89939331 592.54865845 548.89939331 592.66442871 547.29870605 C594.05317518 526.5710766 594.47117929 505.81909556 594.47814941 485.05041504 C594.48138194 482.71477745 594.48474729 480.37914003 594.48823547 478.04350281 C594.49416029 473.18390435 594.49608245 468.32432348 594.4954834 463.46472168 C594.49540245 458.57373329 594.50230754 453.68283919 594.51599121 448.79187012 C594.59649274 419.5586084 594.30805247 390.45253219 592.31018066 361.28088379 C592.25646616 360.49184284 592.20275166 359.7028019 592.14740944 358.88985062 C587.73431804 294.40815442 579.10345138 226.93259684 550.31018066 168.28088379 C549.85771973 167.35678711 549.40525879 166.43269043 548.93908691 165.48059082 C536.91531149 141.16828882 522.06506599 119.83300122 503.31018066 100.28088379 C502.13648926 99.04531738 502.13648926 99.04531738 500.93908691 97.78479004 C495.43875909 92.12759012 489.5370279 87.12044368 483.31018066 82.28088379 C482.77183594 81.86081055 482.23349121 81.4407373 481.67883301 81.00793457 C408.83774969 24.60471846 310.3655522 13.62391566 177.53283691 8.11291504 C175.10562624 8.10968496 172.67841575 8.10631973 170.25120544 8.10282898 C165.18956046 8.09689055 160.1279324 8.09498334 155.06628418 8.09558105 C149.96761495 8.09566189 144.86903638 8.08877907 139.77038574 8.07507324 C109.55629382 7.99516405 79.46261359 8.23749655 49.31018066 10.28088379 Z " fill="#000000" transform="translate(311.6898193359375,-0.2808837890625)"/>
<path d="M0 0 C1.20030716 0.97594474 2.39712408 1.95620312 3.58984375 2.94140625 C4.12077637 3.37984863 4.65170898 3.81829102 5.19873047 4.27001953 C15.72310733 13.10206843 23.67847114 23.79650261 31.58984375 34.94140625 C31.08195313 35.92238281 30.5740625 36.90335937 30.05078125 37.9140625 C23.69634319 50.30978993 18.25568693 62.6015928 14.77734375 76.12890625 C14.57020752 76.92393555 14.36307129 77.71896484 14.1496582 78.53808594 C5.0324783 116.0518426 15.06438145 151.47828192 31.58984375 184.94140625 C19.81871341 201.79294738 6.18166054 217.04322529 -11.41015625 227.94140625 C-12.35109131 228.52825195 -12.35109131 228.52825195 -13.31103516 229.12695312 C-46.00962357 249.20660383 -84.17742625 254.46182546 -121.40234375 246.0625 C-154.14633557 237.92755816 -182.49870275 218.25076852 -202.59765625 191.19140625 C-203.02594727 190.63155029 -203.45423828 190.07169434 -203.89550781 189.49487305 C-205.015625 187.89453125 -205.015625 187.89453125 -206.41015625 184.94140625 C-205.33687863 181.61438089 -203.76716676 178.54360199 -202.203125 175.421875 C-196.96428752 164.81843575 -192.18754535 154.4649834 -189.41015625 142.94140625 C-189.2493457 142.29300781 -189.08853516 141.64460937 -188.92285156 140.9765625 C-186.51177807 130.77548456 -186.13831105 120.64902148 -186.09765625 110.19140625 C-186.09209717 108.99620361 -186.08653809 107.80100098 -186.08081055 106.56958008 C-186.17327026 95.07849681 -187.58451429 83.80490948 -190.53515625 72.69140625 C-190.74398438 71.9012915 -190.9528125 71.11117676 -191.16796875 70.29711914 C-193.64350272 61.43495367 -197.39214249 53.19625714 -201.41015625 44.94140625 C-201.94640625 43.83667969 -202.48265625 42.73195313 -203.03515625 41.59375 C-204.13894383 39.36422452 -205.25791854 37.1461688 -206.41015625 34.94140625 C-187.67871681 8.15920487 -162.46860201 -14.67563402 -130.41015625 -24.05859375 C-129.25386719 -24.4040625 -128.09757812 -24.74953125 -126.90625 -25.10546875 C-82.85201155 -37.57620702 -35.84069171 -28.41924938 0 0 Z " fill="#00DF54" transform="translate(545.41015625,344.05859375)"/>
<path d="M0 0 C0.51272461 0.40589355 1.02544922 0.81178711 1.55371094 1.22998047 C26.07919992 20.79881657 42.95424932 46.750031 50.75 77.1875 C50.96100342 78.00694092 51.17200684 78.82638184 51.3894043 79.6706543 C60.35234439 116.34993274 51.88917255 154.09605633 33 186 C30.54385492 189.86926965 27.89962457 193.45313781 25 197 C24.55398438 197.54994629 24.10796875 198.09989258 23.6484375 198.66650391 C0.04298632 227.59738274 -32.85587107 245.9355515 -69.98046875 250.6875 C-107.45001156 254.10529712 -143.88233792 244.10135874 -173.5625 220.8125 C-185.25321462 210.81200918 -195.80995091 200.06532993 -204 187 C-204.38881348 186.38044434 -204.77762695 185.76088867 -205.17822266 185.12255859 C-224.64178473 153.53336576 -231.31767233 115.27105207 -223 79 C-222.8443457 78.31164062 -222.68869141 77.62328125 -222.52832031 76.9140625 C-218.48166664 59.79049808 -210.60476638 43.0344825 -200 29 C-199.3503125 28.12988281 -198.700625 27.25976562 -198.03125 26.36328125 C-174.21878733 -4.06869064 -142.40637442 -21.5488048 -104.75 -28.609375 C-67.33881101 -32.50637385 -29.69906019 -23.64925163 0 0 Z M-110 15 C-112.7034148 15.53977577 -115.41895551 15.96466987 -118.140625 16.40234375 C-120.94419023 16.98833484 -123.37998058 17.8573273 -126 19 C-126 19.66 -126 20.32 -126 21 C-126.804375 21.061875 -127.60875 21.12375 -128.4375 21.1875 C-145.30529478 25.03454092 -163.15754231 42.99084725 -172.41015625 57.1640625 C-177.21686836 65.73819761 -181.41974821 74.5015185 -184 84 C-184.66666667 85.66666667 -185.33333333 87.33333333 -186 89 C-193.53940131 116.03945779 -185.76400513 143.23343027 -172.734375 166.953125 C-171.56242519 169.01195575 -170.31409524 171.02885715 -169 173 C-168.34 173 -167.68 173 -167 173 C-166.690625 174.04027344 -166.690625 174.04027344 -166.375 175.1015625 C-164.55481117 178.93843782 -162.01680582 181.4326779 -159 184.375 C-158.41549072 184.95008301 -157.83098145 185.52516602 -157.22875977 186.11767578 C-152.50298761 190.68142515 -147.60110033 194.55048875 -142 198 C-141.07832031 198.59296875 -140.15664062 199.1859375 -139.20703125 199.796875 C-132.76350487 203.78045538 -126.31128498 206.56290501 -119.12890625 208.95703125 C-117.19558438 209.60147187 -115.27706711 210.29545012 -113.390625 211.06640625 C-93.87629614 218.68719808 -67.45567647 214.91209022 -48.83203125 206.79296875 C-37.49452882 201.6055128 -27.24984454 195.42238241 -18 187 C-17.23429688 186.32710937 -16.46859375 185.65421875 -15.6796875 184.9609375 C-7.08655779 176.96663216 0.62946669 165.9631425 5 155 C5 154.01 5 153.02 5 152 C5.66 152 6.32 152 7 152 C7.26554688 150.92621094 7.53109375 149.85242188 7.8046875 148.74609375 C8.16139421 147.3098799 8.51816866 145.87368288 8.875 144.4375 C9.04902344 143.73302734 9.22304688 143.02855469 9.40234375 142.30273438 C9.57636719 141.60341797 9.75039063 140.90410156 9.9296875 140.18359375 C10.08679199 139.54993896 10.24389648 138.91628418 10.40576172 138.26342773 C10.89582486 136.39679859 11.46106501 134.55007755 12.04589844 132.7109375 C13.56419532 126.80558626 13.37191673 120.88184872 13.37060547 114.82446289 C13.37492916 112.59896347 13.41116522 110.37553369 13.44921875 108.15039062 C13.54215666 96.3943967 12.55546583 84.10873793 6 74 C5.40635775 72.49105031 4.84389689 70.96947834 4.3125 69.4375 C-1.12381145 55.64234876 -12.87364089 41.6312932 -25 33 C-25.66 33 -26.32 33 -27 33 C-27 32.34 -27 31.68 -27 31 C-31.6485447 28.30062894 -36.31453934 25.63477107 -41 23 C-41.87914062 22.50371094 -42.75828125 22.00742187 -43.6640625 21.49609375 C-50.44321441 17.87979031 -57.55174409 15.80683327 -65 14 C-65.73992187 13.81904785 -66.47984375 13.6380957 -67.2421875 13.45166016 C-73.86681159 11.96350079 -80.22612487 11.69842227 -87 11.75 C-88.01578125 11.74226563 -89.0315625 11.73453125 -90.078125 11.7265625 C-100.67519268 11.31277198 -100.67519268 11.31277198 -110 15 Z " fill="#FD7700" transform="translate(306,343)"/>
<path d="M0 0 C0.85078125 -0.020625 1.7015625 -0.04125 2.578125 -0.0625 C7.48167987 -0.09305174 10.62373736 0.13073612 14.625 3.25 C15.3778125 3.80558594 16.130625 4.36117188 16.90625 4.93359375 C18.43470406 6.14182592 19.96197961 7.35154993 21.48828125 8.5625 C23.06681925 9.80916986 24.68085184 11.01119551 26.3125 12.1875 C35.36433172 20.26075532 42.71979602 33.53234395 45.625 45.25 C45.90085937 46.22582031 46.17671875 47.20164062 46.4609375 48.20703125 C50.8597934 65.54013777 50.66176555 86.96384216 41.70703125 102.93359375 C32.53320455 117.54631208 22.78184892 129.41303193 7.625 138.25 C7.04153809 138.59160156 6.45807617 138.93320312 5.85693359 139.28515625 C-10.16620209 148.47757704 -26.02625414 151.69323414 -44.375 151.75 C-45.67445557 151.75644531 -46.97391113 151.76289062 -48.31274414 151.76953125 C-56.4182919 151.6615611 -63.61753603 150.56404572 -71.375 148.25 C-72.57253906 147.93417969 -73.77007813 147.61835937 -75.00390625 147.29296875 C-91.10179671 142.59864383 -107.71552278 132.4383838 -118.375 119.25 C-119.09375 117.01171875 -119.09375 117.01171875 -119.375 115.25 C-120.035 115.25 -120.695 115.25 -121.375 115.25 C-125.46315625 110.35087797 -127.85681573 105.43117882 -129.375 99.25 C-130.36681059 96.77248125 -131.40640479 94.32134296 -132.47265625 91.875 C-137.02866925 78.62114399 -136.68616571 56.07377773 -131.45703125 42.9453125 C-130.80111145 41.61336808 -130.10928592 40.29821201 -129.375 39.0078125 C-128.19123117 37.01365819 -128.19123117 37.01365819 -126.9375 33.75 C-125.13231013 29.70637469 -123.124369 25.74342265 -120.375 22.25 C-119.715 22.25 -119.055 22.25 -118.375 22.25 C-118.045 20.93 -117.715 19.61 -117.375 18.25 C-116.09036865 18.32069702 -116.09036865 18.32069702 -114.77978516 18.39282227 C-111.55571267 18.54760387 -108.33355001 18.65967197 -105.10693359 18.74438477 C-103.71957556 18.78923678 -102.33263288 18.85035186 -100.94677734 18.92895508 C-92.20840068 19.46853471 -92.20840068 19.46853471 -84.30761719 16.17138672 C-81.64057231 13.72119307 -81.64057231 13.72119307 -79.40380859 11.10131836 C-78.73430176 10.4903833 -78.06479492 9.87944824 -77.375 9.25 C-75.10791016 9.47485352 -75.10791016 9.47485352 -73.375 10.25 C-72.97131705 16.70892714 -73.7834738 21.31108578 -76.375 27.25 C-77.035 27.25 -77.695 27.25 -78.375 27.25 C-78.375 27.91 -78.375 28.57 -78.375 29.25 C-71.94 28.755 -71.94 28.755 -65.375 28.25 C-64.88 26.765 -64.88 26.765 -64.375 25.25 C-62.6328125 24.00390625 -62.6328125 24.00390625 -60.5 22.8125 C-55.10066817 19.79405435 -53.18199675 16.277163 -51.1875 10.5 C-50.67123047 9.02273438 -50.67123047 9.02273438 -50.14453125 7.515625 C-49.89058594 6.76796875 -49.63664063 6.0203125 -49.375 5.25 C-48.50875 5.415 -47.6425 5.58 -46.75 5.75 C-39.98058472 6.72501866 -31.89430101 7.42310034 -25.375 5.25 C-23.98060336 5.18334624 -22.58330125 5.16461801 -21.1875 5.1875 C-19.3003125 5.2184375 -19.3003125 5.2184375 -17.375 5.25 C-17.375 4.59 -17.375 3.93 -17.375 3.25 C-15.725 3.25 -14.075 3.25 -12.375 3.25 C-12.375 2.59 -12.375 1.93 -12.375 1.25 C-8.23358936 -0.13047021 -4.33798777 0.02605398 0 0 Z " fill="#FA320A" transform="translate(747.375,394.75)"/>
<path d="M0 0 C0.99508831 -0.00551503 0.99508831 -0.00551503 2.01027942 -0.01114148 C4.23177539 -0.02214882 6.45322453 -0.02601712 8.67474365 -0.02983093 C10.26824593 -0.03609778 11.86174674 -0.04274478 13.45524597 -0.04974365 C18.68693021 -0.07075902 23.91861466 -0.08114326 29.15032959 -0.09111023 C30.95301071 -0.09515864 32.75569168 -0.09927559 34.5583725 -0.10346031 C43.02766489 -0.12250595 51.4969486 -0.13673865 59.96625829 -0.14507228 C69.73572796 -0.15484459 79.50497105 -0.18116655 89.2743609 -0.22157317 C96.83034463 -0.25175048 104.38626346 -0.26654266 111.94230628 -0.26985329 C116.45303644 -0.27220181 120.96352436 -0.28113644 125.47418976 -0.30631447 C129.71943819 -0.32962874 133.96428546 -0.33381505 138.20958138 -0.32355309 C139.76396839 -0.32305844 141.31837538 -0.32935791 142.87270164 -0.34310913 C152.70812322 -0.42522576 159.36294148 0.10792678 167.25970459 6.45967102 C171.22581621 11.47563572 171.63557955 17.02663698 171.65936279 23.25654602 C171.66447372 23.9290741 171.66958466 24.60160217 171.67485046 25.29450989 C171.68863721 27.49548997 171.68779838 29.69615316 171.68548584 31.89717102 C171.6893781 33.43981541 171.69371386 34.98245874 171.69847107 36.52510071 C171.70590928 39.74942 171.705659 42.97362974 171.70037842 46.19795227 C171.69457963 50.31692146 171.71153602 54.43544158 171.73472309 58.55433655 C171.74949665 61.73720391 171.75032735 64.91996392 171.74721336 68.1028595 C171.74772451 69.62101635 171.75292334 71.13917953 171.76302528 72.65730286 C171.77544678 74.78442633 171.76856558 76.91068503 171.75701904 79.03779602 C171.75764847 80.24468079 171.75827789 81.45156555 171.75892639 82.69502258 C171.120271 88.58653721 169.07965458 93.16327794 164.44720459 97.02217102 C163.77818115 97.5970929 163.10915771 98.17201477 162.41986084 98.76435852 C158.43695597 101.47059331 154.482099 101.27580816 149.76268005 101.28761292 C148.76653339 101.2920696 148.76653339 101.2920696 147.75026256 101.29661632 C145.5264277 101.30528337 143.30264679 101.30680987 141.07879639 101.30830383 C139.48367193 101.3129334 137.88854858 101.31795825 136.29342651 101.323349 C131.96068734 101.3364612 127.62796365 101.3429156 123.29520774 101.34735966 C120.58750243 101.35029214 117.87980134 101.35439728 115.17209816 101.35886383 C106.69799974 101.37253534 98.22391098 101.38220383 89.74980229 101.38606572 C79.97187389 101.39054647 70.19408528 101.4080966 60.41619939 101.43706632 C52.85513482 101.45868958 45.29410956 101.46877034 37.7330144 101.47010684 C33.21845137 101.47115436 28.70401981 101.47705092 24.18948936 101.49492645 C19.94182978 101.51141841 15.69440034 101.51355722 11.44672012 101.50478745 C9.89030783 101.50401768 8.3338831 101.50835176 6.77750206 101.5182457 C4.64728907 101.5309902 2.51788821 101.52507569 0.38768005 101.5146637 C-0.80269017 101.51613026 -1.9930604 101.51759682 -3.21950245 101.51910782 C-9.0825817 100.87693235 -13.6520848 98.81729251 -17.49029541 94.20967102 C-18.35267822 93.20613586 -18.35267822 93.20613586 -19.23248291 92.18232727 C-21.95917074 88.1693206 -21.74960948 84.14891151 -21.77642822 79.39424133 C-21.78139313 78.72375763 -21.78635803 78.05327393 -21.79147339 77.36247253 C-21.80604593 75.1500698 -21.81288954 72.93773882 -21.81842041 70.72529602 C-21.82417685 69.1807607 -21.82993452 67.63622538 -21.83569336 66.09169006 C-21.84619006 62.85366993 -21.85204111 59.61567452 -21.85552979 56.37763977 C-21.86100516 52.24413948 -21.88501809 48.11097014 -21.91350174 43.97757339 C-21.93219931 40.78609792 -21.93733754 37.59470095 -21.93886566 34.40317535 C-21.94187777 32.88025355 -21.94985721 31.35733266 -21.96305084 29.83446503 C-22.10390546 12.32347422 -22.10390546 12.32347422 -16.71295166 5.86982727 C-16.0413501 5.32197571 -15.36974854 4.77412415 -14.67779541 4.20967102 C-14.00877197 3.64377258 -13.33974854 3.07787415 -12.65045166 2.49482727 C-8.65179099 -0.15303824 -4.70580611 0.01692861 0 0 Z " fill="#00DB52" transform="translate(383.61529541015625,401.8528289794922)"/>
<path d="M0 0 C0 0.66 0 1.32 0 2 C0.99 2 1.98 2 3 2 C3 2.66 3 3.32 3 4 C3.6909375 4.05542969 4.381875 4.11085938 5.09375 4.16796875 C9.01442107 5.29041893 11.52710918 7.64655498 14.5 10.3125 C15.61410281 11.28830931 16.72867922 12.2635782 17.84375 13.23828125 C18.37492432 13.70983643 18.90609863 14.1813916 19.45336914 14.66723633 C20.86867008 15.8868303 22.35187386 17.02645718 23.83984375 18.15625 C26.56392698 20.48132646 26.88788937 22.66366812 28 26 C29.8817921 26.76230794 29.8817921 26.76230794 32 27 C36.402892 29.66841939 38.39582014 33.18746041 40 38 C41.32488113 38.36548445 42.66018514 38.6937566 44 39 C48.402892 41.66841939 50.39582014 45.18746041 52 50 C53.94603274 50.59070014 53.94603274 50.59070014 56 51 C56.66 51.66 57.32 52.32 58 53 C57.625 56.625 57.625 56.625 57 60 C55.68 60.33 54.36 60.66 53 61 C53 61.66 53 62.32 53 63 C51.625 64.625 51.625 64.625 50 66 C49.34 66 48.68 66 48 66 C48 66.66 48 67.32 48 68 C47.34 68 46.68 68 46 68 C46 68.66 46 69.32 46 70 C44.625 71.625 44.625 71.625 43 73 C42.34 73 41.68 73 41 73 C41 73.66 41 74.32 41 75 C39.8125 76.6875 39.8125 76.6875 38 78 C33.62551489 77.67890837 31.6663577 76.14782242 28.65625 73.06274414 C27.83189453 72.22840347 27.00753906 71.39406281 26.15820312 70.53443909 C25.28099609 69.62717575 24.40378906 68.71991241 23.5 67.78515625 C22.10461875 66.37025708 20.70922924 64.95536594 19.31335449 63.54095364 C16.86710554 61.05640257 14.43457443 58.5584815 12 56.0625 C9.09506652 53.08813305 6.18686782 50.11712845 3.26757812 47.15684509 C1.45147363 45.31343534 -0.35739467 43.46286263 -2.15820312 41.60450745 C-2.98255859 40.76701462 -3.80691406 39.92952179 -4.65625 39.06665039 C-5.37619141 38.32798233 -6.09613281 37.58931427 -6.83789062 36.82826233 C-9.13330841 34.88727548 -11.16471122 33.94890776 -14 33 C-14 32.34 -14 31.68 -14 31 C-15.62580966 31.11398665 -17.25067157 31.24155659 -18.875 31.375 C-19.77992188 31.44460938 -20.68484375 31.51421875 -21.6171875 31.5859375 C-24.17941903 31.79568132 -24.17941903 31.79568132 -26 34 C-26.99 34 -27.98 34 -29 34 C-30.50506262 39.64398482 -31.34166609 45.89675706 -28.9765625 51.3671875 C-25.79843604 56.44165461 -21.79216707 60.18508285 -17.23828125 64.01953125 C-14.38242284 66.54644262 -12.00335045 69.35842011 -9.546875 72.265625 C-7.94728592 74.15625549 -7.94728592 74.15625549 -5.5 76 C-2.50039481 78.39968415 -0.18241912 81.14183461 2.3125 84.05078125 C4.95723085 87.10569027 7.7093491 89.9636912 10.86328125 92.49609375 C11.50652344 93.01300781 12.14976562 93.52992188 12.8125 94.0625 C13.41707031 94.52785156 14.02164063 94.99320312 14.64453125 95.47265625 C16 97 16 97 16 101 C14.68 101.33 13.36 101.66 12 102 C12 102.66 12 103.32 12 104 C10.625 105.625 10.625 105.625 9 107 C8.34 107 7.68 107 7 107 C7 107.66 7 108.32 7 109 C4.625 111.625 4.625 111.625 2 114 C1.34 114 0.68 114 0 114 C0 114.66 0 115.32 0 116 C-0.99 116.495 -0.99 116.495 -2 117 C-3.13350534 119.01669827 -3.13350534 119.01669827 -4 121 C-12.23726168 119.87414589 -17.28286895 112.87909205 -22.41796875 106.83984375 C-24.49107978 104.4288924 -26.72390894 102.21918879 -29 100 C-30.16801776 98.83468599 -31.33458984 97.66792182 -32.5 96.5 C-33.0465625 95.9534375 -33.593125 95.406875 -34.15625 94.84375 C-35.56316324 93.43683676 -36.9629044 92.02274769 -38.359375 90.60546875 C-42.01026852 87.0031818 -45.84462044 83.61983712 -49.671875 80.20703125 C-52 78 -52 78 -53 76 C-57.58602701 73.33714561 -62.85453237 73.28607725 -68 74 C-70.58709872 75.58526981 -70.58709872 75.58526981 -72 78 C-72.4125 78.598125 -72.825 79.19625 -73.25 79.8125 C-74.81527593 84.37788813 -74.26996273 88.16169469 -72.8125 92.6875 C-70.91387478 96.15740127 -69.14033165 97.68607142 -66 100 C-65.67 100.99 -65.34 101.98 -65 103 C-63.24360625 104.818092 -63.24360625 104.818092 -61.125 106.5625 C-60.07699219 107.46162109 -60.07699219 107.46162109 -59.0078125 108.37890625 C-56.89030551 110.13892666 -56.89030551 110.13892666 -54 112 C-53.67 112.99 -53.34 113.98 -53 115 C-51.00769926 116.71836093 -51.00769926 116.71836093 -48.625 118.375 C-45.06676319 121.04088902 -43.27874267 123.20209555 -41 127 C-38.71583927 128.88255005 -36.3683057 130.62978783 -33.9609375 132.3515625 C-32 134 -32 134 -31 137 C-29.515 137.99 -29.515 137.99 -28 139 C-28.61016949 144.49152542 -28.61016949 144.49152542 -30.4375 146.875 C-32 148 -32 148 -34 148 C-34 148.66 -34 149.32 -34 150 C-35.375 151.625 -35.375 151.625 -37 153 C-37.66 153 -38.32 153 -39 153 C-39 153.66 -39 154.32 -39 155 C-39.66 155 -40.32 155 -41 155 C-41 155.66 -41 156.32 -41 157 C-42.375 158.625 -42.375 158.625 -44 160 C-44.66 160 -45.32 160 -46 160 C-46 160.66 -46 161.32 -46 162 C-48.67276001 162.77856445 -48.67276001 162.77856445 -52 163 C-54.60385132 161.23120117 -54.60385132 161.23120117 -57.23583984 158.54296875 C-57.72129776 158.05692673 -58.20675568 157.5708847 -58.70692444 157.07011414 C-60.30861211 155.45845045 -61.88417012 153.8235216 -63.4609375 152.1875 C-64.57501387 151.05781183 -65.69073322 149.92974179 -66.80801392 148.80322266 C-69.75002289 145.82880849 -72.670884 142.8344675 -75.58734131 139.83502197 C-79.11089386 136.21811435 -82.65697715 132.62332998 -86.20147133 129.02696228 C-88.96498284 126.22261894 -91.72451318 123.41475852 -94.47177124 120.59448242 C-99.27350053 115.67702037 -104.09521258 110.85607251 -109.35098267 106.41551208 C-112.04132589 104.10612863 -114.51721073 101.59074879 -117 99.0625 C-117.48855469 98.56943359 -117.97710937 98.07636719 -118.48046875 97.56835938 C-119.65603525 96.38126771 -120.82838826 95.19099502 -122 94 C-120.0024866 88.25808414 -116.46195669 84.87469824 -112.25 80.625 C-111.19425781 79.50158203 -111.19425781 79.50158203 -110.1171875 78.35546875 C-104.85650529 73.026339 -104.85650529 73.026339 -100.5703125 72.89453125 C-98 74 -98 74 -96.625 76.0625 C-96.41875 76.701875 -96.2125 77.34125 -96 78 C-95.34 78 -94.68 78 -94 78 C-94.02320313 77.10796875 -94.04640625 76.2159375 -94.0703125 75.296875 C-94.09738281 73.54117188 -94.09738281 73.54117188 -94.125 71.75 C-94.14820313 70.58984375 -94.17140625 69.4296875 -94.1953125 68.234375 C-94.0103949 65.17213954 -93.60823023 63.55797249 -92 61 C-91.34 61 -90.68 61 -90 61 C-89.9175 60.27683594 -89.835 59.55367188 -89.75 58.80859375 C-87.67013147 51.0199194 -79.48389388 45.19500813 -72.9453125 41.05859375 C-69.88882382 39.39532381 -67.40809663 38.87663085 -63.98828125 38.90234375 C-62.85229492 38.90717773 -62.85229492 38.90717773 -61.69335938 38.91210938 C-60.51483398 38.92467773 -60.51483398 38.92467773 -59.3125 38.9375 C-58.11657227 38.94426758 -58.11657227 38.94426758 -56.89648438 38.95117188 C-54.93095743 38.9629415 -52.96546915 38.98087652 -51 39 C-51.05800781 38.20078125 -51.11601562 37.4015625 -51.17578125 36.578125 C-51.65412217 24.93394028 -48.26428625 14.94028836 -40.37109375 6.1953125 C-30.16758194 -4.42691793 -13.33281761 -6.6664088 0 0 Z " fill="#F9F9F9" transform="translate(251,374)"/>
<path d="M0 0 C0.99508831 -0.00551503 0.99508831 -0.00551503 2.01027942 -0.01114148 C4.23177539 -0.02214882 6.45322453 -0.02601712 8.67474365 -0.02983093 C10.26824593 -0.03609778 11.86174674 -0.04274478 13.45524597 -0.04974365 C18.68693021 -0.07075902 23.91861466 -0.08114326 29.15032959 -0.09111023 C30.95301071 -0.09515864 32.75569168 -0.09927559 34.5583725 -0.10346031 C43.02766489 -0.12250595 51.4969486 -0.13673865 59.96625829 -0.14507228 C69.73572796 -0.15484459 79.50497105 -0.18116655 89.2743609 -0.22157317 C96.83034463 -0.25175048 104.38626346 -0.26654266 111.94230628 -0.26985329 C116.45303644 -0.27220181 120.96352436 -0.28113644 125.47418976 -0.30631447 C129.71943819 -0.32962874 133.96428546 -0.33381505 138.20958138 -0.32355309 C139.76396839 -0.32305844 141.31837538 -0.32935791 142.87270164 -0.34310913 C152.70812322 -0.42522576 159.36294148 0.10792678 167.25970459 6.45967102 C171.22581621 11.47563572 171.63557955 17.02663698 171.65936279 23.25654602 C171.66447372 23.9290741 171.66958466 24.60160217 171.67485046 25.29450989 C171.68863721 27.49548997 171.68779838 29.69615316 171.68548584 31.89717102 C171.6893781 33.43981541 171.69371386 34.98245874 171.69847107 36.52510071 C171.70590928 39.74942 171.705659 42.97362974 171.70037842 46.19795227 C171.69457963 50.31692146 171.71153602 54.43544158 171.73472309 58.55433655 C171.74949665 61.73720391 171.75032735 64.91996392 171.74721336 68.1028595 C171.74772451 69.62101635 171.75292334 71.13917953 171.76302528 72.65730286 C171.77544678 74.78442633 171.76856558 76.91068503 171.75701904 79.03779602 C171.75764847 80.24468079 171.75827789 81.45156555 171.75892639 82.69502258 C171.120271 88.58653721 169.07965458 93.16327794 164.44720459 97.02217102 C163.77818115 97.5970929 163.10915771 98.17201477 162.41986084 98.76435852 C158.43695597 101.47059331 154.482099 101.27580816 149.76268005 101.28761292 C148.76653339 101.2920696 148.76653339 101.2920696 147.75026256 101.29661632 C145.5264277 101.30528337 143.30264679 101.30680987 141.07879639 101.30830383 C139.48367193 101.3129334 137.88854858 101.31795825 136.29342651 101.323349 C131.96068734 101.3364612 127.62796365 101.3429156 123.29520774 101.34735966 C120.58750243 101.35029214 117.87980134 101.35439728 115.17209816 101.35886383 C106.69799974 101.37253534 98.22391098 101.38220383 89.74980229 101.38606572 C79.97187389 101.39054647 70.19408528 101.4080966 60.41619939 101.43706632 C52.85513482 101.45868958 45.29410956 101.46877034 37.7330144 101.47010684 C33.21845137 101.47115436 28.70401981 101.47705092 24.18948936 101.49492645 C19.94182978 101.51141841 15.69440034 101.51355722 11.44672012 101.50478745 C9.89030783 101.50401768 8.3338831 101.50835176 6.77750206 101.5182457 C4.64728907 101.5309902 2.51788821 101.52507569 0.38768005 101.5146637 C-0.80269017 101.51613026 -1.9930604 101.51759682 -3.21950245 101.51910782 C-9.0825817 100.87693235 -13.6520848 98.81729251 -17.49029541 94.20967102 C-18.35267822 93.20613586 -18.35267822 93.20613586 -19.23248291 92.18232727 C-21.95917074 88.1693206 -21.74960948 84.14891151 -21.77642822 79.39424133 C-21.78139313 78.72375763 -21.78635803 78.05327393 -21.79147339 77.36247253 C-21.80604593 75.1500698 -21.81288954 72.93773882 -21.81842041 70.72529602 C-21.82417685 69.1807607 -21.82993452 67.63622538 -21.83569336 66.09169006 C-21.84619006 62.85366993 -21.85204111 59.61567452 -21.85552979 56.37763977 C-21.86100516 52.24413948 -21.88501809 48.11097014 -21.91350174 43.97757339 C-21.93219931 40.78609792 -21.93733754 37.59470095 -21.93886566 34.40317535 C-21.94187777 32.88025355 -21.94985721 31.35733266 -21.96305084 29.83446503 C-22.10390546 12.32347422 -22.10390546 12.32347422 -16.71295166 5.86982727 C-16.0413501 5.32197571 -15.36974854 4.77412415 -14.67779541 4.20967102 C-14.00877197 3.64377258 -13.33974854 3.07787415 -12.65045166 2.49482727 C-8.65179099 -0.15303824 -4.70580611 0.01692861 0 0 Z M-12.61529541 14.14717102 C-14.02624924 16.96907867 -13.7660227 19.34928796 -13.79229736 22.50532532 C-13.79886856 23.15761612 -13.80543976 23.80990692 -13.81221008 24.48196411 C-13.83195148 26.64510716 -13.84360988 28.80818063 -13.85357666 30.97138977 C-13.85765219 31.71103281 -13.86172771 32.45067585 -13.86592674 33.21273232 C-13.88679501 37.13057298 -13.90109118 41.04837858 -13.91046143 44.96626282 C-13.9215038 49.00361806 -13.95587565 53.04041879 -13.99563313 57.07757854 C-14.02184918 60.18923937 -14.03015783 63.30076936 -14.0337429 66.4125309 C-14.03859914 67.90001466 -14.05018568 69.38749294 -14.0687809 70.87486839 C-14.41626239 81.75567719 -14.41626239 81.75567719 -9.61529541 91.14717102 C-6.16148107 93.44393716 -3.13980602 93.40074472 0.94425964 93.40786743 C1.93027234 93.41360575 1.93027234 93.41360575 2.93620449 93.41946 C5.13713696 93.42977241 7.3378077 93.42580128 9.53875732 93.42182922 C11.11742392 93.42617667 12.69608841 93.43135993 14.27474976 93.43731689 C18.56192572 93.45071447 22.84901357 93.45128474 27.13620639 93.4487536 C30.71481571 93.44768442 34.29340717 93.45256587 37.87201267 93.45735902 C46.31416379 93.46845678 54.75627041 93.46889006 63.19842529 93.46284485 C71.90875519 93.45680353 80.61892361 93.46911944 89.32922596 93.49041492 C96.80704035 93.50802517 104.28480331 93.5140332 111.76263767 93.51077718 C116.22906036 93.50896329 120.69536785 93.51161102 125.16177177 93.52549171 C129.36183556 93.53805612 133.56164744 93.5361392 137.76170731 93.52308083 C139.3028287 93.52071248 140.84396774 93.523459 142.38506889 93.53170395 C144.48972753 93.54215171 146.59353779 93.53408765 148.69816589 93.52139282 C149.87563102 93.52156056 151.05309614 93.52172831 152.26624203 93.52190113 C155.7451486 93.10385826 157.59963762 92.2406726 160.38470459 90.14717102 C163.19333446 85.81267246 163.76254518 82.41495624 163.77288818 77.30317688 C163.77814514 76.64708939 163.7834021 75.99100189 163.78881836 75.31503296 C163.80193557 73.16377894 163.79331155 71.01327525 163.78314209 68.86201477 C163.78516498 67.3579901 163.78807821 65.85396639 163.7918396 64.34994507 C163.7962515 61.20535397 163.78986784 58.06101932 163.77581787 54.91645813 C163.75871161 50.89251556 163.76858303 46.86917272 163.78653526 42.84525204 C163.79739137 39.74222315 163.7939187 36.63933578 163.78615189 33.53630257 C163.78415568 32.05278514 163.78658875 30.56925473 163.79359055 29.08575249 C163.80123715 27.01074697 163.7895583 24.93670467 163.77288818 22.86177063 C163.76930801 21.09355202 163.76930801 21.09355202 163.76565552 19.28961182 C163.34175461 15.7928793 162.49382626 13.94371829 160.38470459 11.14717102 C156.76557099 8.73441528 155.10194988 8.88960943 150.79354858 8.87301636 C150.120727 8.86777968 149.44790541 8.862543 148.7546953 8.85714763 C146.49540033 8.84212044 144.2363313 8.8414419 141.97698975 8.84077454 C140.35906084 8.83315488 138.74113555 8.82472772 137.12321472 8.81555176 C132.72442965 8.79358103 128.32571411 8.78480444 123.92688036 8.77972531 C121.17948993 8.77608485 118.43211781 8.76984643 115.68473434 8.76272392 C106.10229439 8.73822072 96.51990864 8.7251756 86.93743896 8.72163391 C78.00153275 8.71799769 69.06596982 8.68809847 60.13016856 8.64622933 C52.46129158 8.61155453 44.79252852 8.59608596 37.12357366 8.59538788 C32.54190107 8.59459411 27.96057804 8.58581014 23.37898636 8.55739021 C19.0696587 8.53125744 14.7609716 8.5289772 10.45160103 8.54504585 C8.87015323 8.54686418 7.28866902 8.54013499 5.70730019 8.52422714 C3.54738181 8.50382433 1.38971694 8.51428003 -0.77017212 8.53244019 C-2.5825641 8.52942319 -2.5825641 8.52942319 -4.43157005 8.52634525 C-8.52571296 9.32470225 -9.9991279 10.97717579 -12.61529541 14.14717102 Z " fill="#000C04" transform="translate(383.61529541015625,401.8528289794922)"/>
<path d="M0 0 C0.66 0 1.32 0 2 0 C19.74225561 32.19948223 28.04385544 67.43955902 19 104 C18.80664062 104.78745605 18.61328125 105.57491211 18.4140625 106.38623047 C14.90817416 120.15279354 9.92611097 134.11083355 2 146 C-1 145 -1 145 -2.27099609 143.02905273 C-2.89095459 141.74430054 -2.89095459 141.74430054 -3.5234375 140.43359375 C-3.98492188 139.48121826 -4.44640625 138.52884277 -4.921875 137.54760742 C-5.40140625 136.52127197 -5.8809375 135.49493652 -6.375 134.4375 C-6.86742187 133.38989502 -7.35984375 132.34229004 -7.8671875 131.26293945 C-11.69270609 122.96774497 -14.85865757 114.89063692 -17 106 C-17.15936035 105.34386719 -17.3187207 104.68773437 -17.48291016 104.01171875 C-25.43713375 69.73728879 -19.34304697 31.46221023 -1.1484375 1.45776367 C-0.76945313 0.97670166 -0.39046875 0.49563965 0 0 Z " fill="#FCFEFE" transform="translate(576,381)"/>
<path d="M0 0 C4.82961594 5.86775768 7.74317911 13.18740597 11 20 C11.40734375 20.84820312 11.8146875 21.69640625 12.234375 22.5703125 C14.69033452 28.1868101 16.16774854 34.07714414 17.6875 40 C17.90237061 40.83112305 18.11724121 41.66224609 18.33862305 42.51855469 C27.27014529 78.81603252 18.97302641 115.17021854 1 147 C0.34 147 -0.32 147 -1 147 C-11.51758688 127.19415457 -20.20285845 105.71853413 -21 83 C-21.0515625 81.72640625 -21.103125 80.4528125 -21.15625 79.140625 C-21.88665579 52.1580408 -15.88388632 22.33108734 0 0 Z " fill="#FDFEFD" transform="translate(339,380)"/>
<path d="M0 0 C2.1823435 1.53574404 2.80595585 2.58179928 3.81542969 5.02783203 C4.11835937 5.74326172 4.42128906 6.45869141 4.73339844 7.19580078 C5.03375 7.94216797 5.33410156 8.68853516 5.64355469 9.45751953 C6.11728516 10.58867187 6.11728516 10.58867187 6.60058594 11.74267578 C7.37685321 13.60101258 8.13680359 15.46615025 8.89355469 17.33251953 C11.6252265 16.06047493 13.41831231 14.88761633 15.76855469 12.89501953 C21.40248567 8.16978709 25.94650549 6.82459143 33.26855469 7.04345703 C37.8774597 7.55098526 40.77088369 9.0227367 43.76855469 12.52001953 C44.13980469 13.11814453 44.51105469 13.71626953 44.89355469 14.33251953 C42.25355469 14.99251953 39.61355469 15.65251953 36.89355469 16.33251953 C36.23355469 18.97251953 35.57355469 21.61251953 34.89355469 24.33251953 C35.93511719 24.28611328 36.97667969 24.23970703 38.04980469 24.19189453 C53.16539557 23.73163847 69.37416736 25.65601421 80.89355469 36.33251953 C80.89355469 36.66251953 80.89355469 36.99251953 80.89355469 37.33251953 C70.49855469 37.82751953 70.49855469 37.82751953 59.89355469 38.33251953 C59.89355469 38.99251953 59.89355469 39.65251953 59.89355469 40.33251953 C58.24355469 40.33251953 56.59355469 40.33251953 54.89355469 40.33251953 C54.89355469 40.99251953 54.89355469 41.65251953 54.89355469 42.33251953 C44.48005417 44.71274822 33.0973799 46.21969104 22.89355469 42.33251953 C22.62542969 43.52876953 22.35730469 44.72501953 22.08105469 45.95751953 C20.61905603 51.74417158 18.56949379 56.45816999 13.89355469 60.33251953 C11.90142798 61.34811354 9.90240319 62.35041582 7.89355469 63.33251953 C7.56355469 63.99251953 7.23355469 64.65251953 6.89355469 65.33251953 C3.87864912 66.33748805 1.85173777 66.43587256 -1.29394531 66.39501953 C-2.64552734 66.38148438 -2.64552734 66.38148438 -4.02441406 66.36767578 C-4.71148438 66.35607422 -5.39855469 66.34447266 -6.10644531 66.33251953 C-6.10644531 65.67251953 -6.10644531 65.01251953 -6.10644531 64.33251953 C-5.44644531 64.33251953 -4.78644531 64.33251953 -4.10644531 64.33251953 C-2.40811923 58.49452361 -1.85357338 53.40144582 -2.10644531 47.33251953 C-5.99187414 47.87050198 -7.19821474 49.47037604 -9.66894531 52.39501953 C-15.03867463 57.39011657 -20.11959756 57.05323102 -27.06323242 56.80493164 C-29.41430485 56.67869488 -31.75893069 56.51213084 -34.10644531 56.33251953 C-35.234375 56.27193359 -36.36230469 56.21134766 -37.52441406 56.14892578 C-40.23144531 55.95751953 -40.23144531 55.95751953 -44.10644531 55.33251953 C-44.43644531 54.67251953 -44.76644531 54.01251953 -45.10644531 53.33251953 C-46.09644531 53.00251953 -47.08644531 52.67251953 -48.10644531 52.33251953 C-48.10644531 51.67251953 -48.10644531 51.01251953 -48.10644531 50.33251953 C-44.80188395 48.38124181 -41.48648651 46.44913303 -38.16894531 44.52001953 C-37.24275391 43.9728125 -36.3165625 43.42560547 -35.36230469 42.86181641 C-30.27073135 39.91406342 -25.46795404 37.53226734 -19.78393555 35.96655273 C-17.89150273 35.46808901 -17.89150273 35.46808901 -17.10644531 33.33251953 C-28.49144531 32.83751953 -28.49144531 32.83751953 -40.10644531 32.33251953 C-36.61493886 25.34950663 -30.09864731 21.69610851 -22.89550781 19.02001953 C-15.91439743 17.2991856 -8.67204895 17.29850676 -2.10644531 20.33251953 C-4.7148081 15.69543014 -7.87647105 11.54507496 -11.10644531 7.33251953 C-9.26898942 3.0208656 -5.19449549 -1.64600726 0 0 Z " fill="#058F30" transform="translate(675.1064453125,357.66748046875)"/>
<path d="M0 0 C5.28 0 10.56 0 16 0 C16.99 4.95 17.98 9.9 19 15 C19.309375 13.63875 19.61875 12.2775 19.9375 10.875 C20.19853516 9.72644531 20.19853516 9.72644531 20.46484375 8.5546875 C21.05883848 5.71912141 21.52371753 2.85769484 22 0 C27.94 0 33.88 0 40 0 C40 17.16 40 34.32 40 52 C36.37 52 32.74 52 29 52 C28.505 42.595 28.505 42.595 28 33 C26.68 39.27 25.36 45.54 24 52 C21.03 52 18.06 52 15 52 C14.86722656 51.03578125 14.73445313 50.0715625 14.59765625 49.078125 C14.42105469 47.81484375 14.24445313 46.5515625 14.0625 45.25 C13.88847656 43.99703125 13.71445312 42.7440625 13.53515625 41.453125 C13.03600896 37.88592488 13.03600896 37.88592488 12 34 C11.67 39.94 11.34 45.88 11 52 C7.37 52 3.74 52 0 52 C0 34.84 0 17.68 0 0 Z " fill="#000602" transform="translate(414,425)"/>
<path d="M0 0 C24 0 24 0 29 3 C31.51449998 8.02899996 30.35553953 15.83561119 30.4050293 21.42895508 C30.42657333 23.25922556 30.46063375 25.08939402 30.50756836 26.91918945 C30.57479828 29.56508143 30.60206656 32.20884143 30.62109375 34.85546875 C30.64892441 35.66614304 30.67675507 36.47681732 30.70542908 37.3120575 C30.67985115 44.44588629 29.26502825 44.85746704 24 51 C16.08 51 8.16 51 0 51 C0 34.17 0 17.34 0 0 Z " fill="#000200" transform="translate(460,426)"/>
<path d="M0 0 C4.29 0 8.58 0 13 0 C13.33 3.3 13.66 6.6 14 10 C15.32 9.34 16.64 8.68 18 8 C22.53011019 8.24268447 25.8707994 8.59603414 29 12 C29.38040878 14.9012382 29.51382855 17.41783221 29.4609375 20.31640625 C29.45956284 21.53480446 29.45956284 21.53480446 29.4581604 22.77781677 C29.45212206 24.49345754 29.4363689 26.20908765 29.41162109 27.92456055 C29.37508718 30.55621997 29.37060185 33.18647274 29.37109375 35.81835938 C29.36126361 37.48438721 29.34960706 39.15040549 29.3359375 40.81640625 C29.33371185 41.60600235 29.33148621 42.39559845 29.32919312 43.2091217 C29.23215606 48.76784394 29.23215606 48.76784394 27 51 C24.3203125 51.265625 24.3203125 51.265625 21.125 51.25 C19.55105469 51.25773437 19.55105469 51.25773437 17.9453125 51.265625 C15.08400889 51.0075764 13.42723091 50.4774449 11 49 C11 49.99 11 50.98 11 52 C7.37 52 3.74 52 0 52 C0 34.84 0 17.68 0 0 Z " fill="#000702" transform="translate(494,425)"/>
<path d="M0 0 C3.96 0 7.92 0 12 0 C12 17.16 12 34.32 12 52 C8.04 52 4.08 52 0 52 C0 34.84 0 17.68 0 0 Z " fill="#000200" transform="translate(395,425)"/>
<path d="M0 0 C2.475 0.495 2.475 0.495 5 1 C5.02468857 5.5206665 5.04285449 10.0412939 5.05493164 14.56201172 C5.05996552 16.10043013 5.06679308 17.63884375 5.07543945 19.17724609 C5.08754639 21.38640526 5.09323769 23.59550126 5.09765625 25.8046875 C5.10281754 26.49432587 5.10797882 27.18396423 5.11329651 27.89450073 C5.11387171 32.77225659 5.11387171 32.77225659 4 35 C2.68 35 1.36 35 0 35 C0 23.45 0 11.9 0 0 Z " fill="#00C148" transform="translate(472,433)"/>
<path d="M0 0 C0.7528125 0.22171875 1.505625 0.4434375 2.28125 0.671875 C2.47943283 7.37706086 2.58969801 13.32364298 0.28125 19.671875 C3.25125 19.671875 6.22125 19.671875 9.28125 19.671875 C5.96754 21.881015 4.9366479 21.89669053 1.09375 21.796875 C0.19269531 21.77882813 -0.70835937 21.76078125 -1.63671875 21.7421875 C-2.32378906 21.71898437 -3.01085937 21.69578125 -3.71875 21.671875 C-3.71875 21.011875 -3.71875 20.351875 -3.71875 19.671875 C-3.05875 19.671875 -2.39875 19.671875 -1.71875 19.671875 C-0.02042391 13.83387908 0.53412193 8.74080129 0.28125 2.671875 C-3.60417883 3.20985745 -4.81051943 4.80973151 -7.28125 7.734375 C-12.65333033 12.73165903 -17.72852026 12.38511536 -24.67333984 12.14868164 C-27.02599486 12.02553158 -29.37053145 11.8605898 -31.71875 11.671875 C-32.85828125 11.58808594 -33.9978125 11.50429688 -35.171875 11.41796875 C-37.35945017 11.22108698 -39.54098163 10.95748397 -41.71875 10.671875 C-41.71875 10.011875 -41.71875 9.351875 -41.71875 8.671875 C-40.92702393 8.68758545 -40.13529785 8.7032959 -39.31958008 8.71948242 C-35.72354305 8.78194199 -32.1276203 8.82090135 -28.53125 8.859375 C-26.66243164 8.89708008 -26.66243164 8.89708008 -24.75585938 8.93554688 C-23.55380859 8.94521484 -22.35175781 8.95488281 -21.11328125 8.96484375 C-19.45582886 8.98840942 -19.45582886 8.98840942 -17.76489258 9.01245117 C-11.96973118 8.36451896 -8.5343014 4.71558158 -4.5625 0.78125 C-2.71875 -0.328125 -2.71875 -0.328125 0 0 Z " fill="#6B742A" transform="translate(672.71875,402.328125)"/>
<path d="M0 0 C0.66 0 1.32 0 2 0 C1.86722656 0.54527344 1.73445313 1.09054687 1.59765625 1.65234375 C0.32210753 7.09902987 -0.46963843 12.43120352 -1 18 C-5 18 -5 18 -7.125 16.0625 C-7.74375 15.381875 -8.3625 14.70125 -9 14 C-9.66 13.67 -10.32 13.34 -11 13 C-11.2475 13.57234375 -11.495 14.1446875 -11.75 14.734375 C-13.19316199 17.35010611 -14.88216222 19.14773456 -17 21.25 C-17.70125 21.95640625 -18.4025 22.6628125 -19.125 23.390625 C-21 25 -21 25 -23 25 C-23.433125 25.86625 -23.433125 25.86625 -23.875 26.75 C-25.9375 30.875 -25.9375 30.875 -28 35 C-28.66 33.68 -29.32 32.36 -30 31 C-27.71985675 28.28406145 -25.37314369 25.63500782 -23 23 C-22.56623047 22.51337891 -22.13246094 22.02675781 -21.68554688 21.52539062 C-20.28954364 19.97623936 -18.86740628 18.45535541 -17.4375 16.9375 C-16.54933594 15.97714844 -15.66117188 15.01679688 -14.74609375 14.02734375 C-12 12 -12 12 -8.74609375 12.0625 C-6 13 -6 13 -4.625 15.0625 C-4.41875 15.701875 -4.2125 16.34125 -4 17 C-3.34 17 -2.68 17 -2 17 C-2.02320313 16.10796875 -2.04640625 15.2159375 -2.0703125 14.296875 C-2.09738281 12.54117187 -2.09738281 12.54117187 -2.125 10.75 C-2.14820313 9.58984375 -2.17140625 8.4296875 -2.1953125 7.234375 C-2.0103949 4.17213954 -1.60823023 2.55797249 0 0 Z " fill="#B3B3B2" transform="translate(159,435)"/>
<path d="M0 0 C0.99 0 1.98 0 3 0 C3 9.57 3 19.14 3 29 C2.01 29 1.02 29 0 29 C0 19.43 0 9.86 0 0 Z " fill="#00D54F" transform="translate(507,440)"/>
<path d="M0 0 C0.66 1.32 1.32 2.64 2 4 C-2.18930247 8.96202442 -6.48005178 13.77445298 -11 18.4375 C-11.59039062 19.07365234 -12.18078125 19.70980469 -12.7890625 20.36523438 C-17.21836927 24.90673724 -17.21836927 24.90673724 -21.4375 25.41015625 C-22.283125 25.27480469 -23.12875 25.13945313 -24 25 C-24 24.34 -24 23.68 -24 23 C-22.02 22.67 -20.04 22.34 -18 22 C-18 21.34 -18 20.68 -18 20 C-17.34 20 -16.68 20 -16 20 C-15.67 19.01 -15.34 18.02 -15 17 C-14.34 17 -13.68 17 -13 17 C-13 16.34 -13 15.68 -13 15 C-12.34 15 -11.68 15 -11 15 C-11 14.34 -11 13.68 -11 13 C-10.34 13 -9.68 13 -9 13 C-8.67 12.01 -8.34 11.02 -8 10 C-7.34 10 -6.68 10 -6 10 C-6 9.34 -6 8.68 -6 8 C-5.34 8 -4.68 8 -4 8 C-3.67 7.01 -3.34 6.02 -3 5 C-2.34 5 -1.68 5 -1 5 C-0.67 3.35 -0.34 1.7 0 0 Z " fill="#6A6A68" transform="translate(223,514)"/>
<path d="M0 0 C0.99 0 1.98 0 3 0 C2.27004059 6.9261444 -3.02575788 10.64434176 -7.75 15.3125 C-9.11125 16.70952148 -9.11125 16.70952148 -10.5 18.13476562 C-11.38171875 19.01455078 -12.2634375 19.89433594 -13.171875 20.80078125 C-13.9772168 21.60684814 -14.78255859 22.41291504 -15.61230469 23.2434082 C-18.35385278 25.26032421 -19.67579812 25.39688105 -23 25 C-22.01 24.67 -21.02 24.34 -20 24 C-19.67 23.01 -19.34 22.02 -19 21 C-18.34 21 -17.68 21 -17 21 C-17 20.34 -17 19.68 -17 19 C-16.34 19 -15.68 19 -15 19 C-14.67 18.01 -14.34 17.02 -14 16 C-13.34 16 -12.68 16 -12 16 C-12 15.34 -12 14.68 -12 14 C-11.34 14 -10.68 14 -10 14 C-10 13.34 -10 12.68 -10 12 C-9.34 12 -8.68 12 -8 12 C-7.67 11.01 -7.34 10.02 -7 9 C-6.34 9 -5.68 9 -5 9 C-5 8.34 -5 7.68 -5 7 C-3.68 6.67 -2.36 6.34 -1 6 C-0.67 4.02 -0.34 2.04 0 0 Z " fill="#626260" transform="translate(309,428)"/>
<path d="M0 0 C1.32 0.33 2.64 0.66 4 1 C4.40368295 7.45892714 3.5915262 12.06108578 1 18 C0.67 17.01 0.34 16.02 0 15 C-0.33 14.34 -0.66 13.68 -1 13 C-1.99 13.495 -1.99 13.495 -3 14 C-2.979375 13.071875 -2.95875 12.14375 -2.9375 11.1875 C-2.84230396 7.97713989 -2.84230396 7.97713989 -4 5 C-2.0625 2.3125 -2.0625 2.3125 0 0 Z " fill="#DF4013" transform="translate(670,404)"/>
<path d="M0 0 C1.30130859 -0.01836914 1.30130859 -0.01836914 2.62890625 -0.03710938 C3.46292969 -0.03904297 4.29695312 -0.04097656 5.15625 -0.04296875 C5.91744141 -0.04707764 6.67863281 -0.05118652 7.46289062 -0.05541992 C9.5 0.1875 9.5 0.1875 12.5 2.1875 C8.13253245 3.8566379 4.54277152 4.43512352 -0.125 4.375 C-1.23101563 4.36855469 -2.33703125 4.36210937 -3.4765625 4.35546875 C-6.00258892 4.21513395 -8.07324029 3.80843148 -10.5 3.1875 C-10.83 3.5175 -11.16 3.8475 -11.5 4.1875 C-13.49958364 4.22830783 -15.50045254 4.23004356 -17.5 4.1875 C-17.5 3.8575 -17.5 3.5275 -17.5 3.1875 C-15.85 3.1875 -14.2 3.1875 -12.5 3.1875 C-12.5 2.5275 -12.5 1.8675 -12.5 1.1875 C-8.32171361 -0.20526213 -4.37575966 0.00325094 0 0 Z " fill="#D14516" transform="translate(747.5,394.8125)"/>
<path d="M0 0 C0.66 0.33 1.32 0.66 2 1 C-0.01096901 5.39168914 -2.89698209 8.33697283 -6.25 11.75 C-7.09111328 12.65298828 -7.09111328 12.65298828 -7.94921875 13.57421875 C-12.20568319 17.90932457 -12.20568319 17.90932457 -16.421875 18.390625 C-17.27265625 18.26171875 -18.1234375 18.1328125 -19 18 C-18.67 17.34 -18.34 16.68 -18 16 C-16.68 16 -15.36 16 -14 16 C-13.34 14.68 -12.68 13.36 -12 12 C-11.34 12 -10.68 12 -10 12 C-10 11.34 -10 10.68 -10 10 C-9.34 10 -8.68 10 -8 10 C-7.731875 9.360625 -7.46375 8.72125 -7.1875 8.0625 C-6 6 -6 6 -3 5 C-3 4.34 -3 3.68 -3 3 C-2.34 3 -1.68 3 -1 3 C-0.67 2.01 -0.34 1.02 0 0 Z " fill="#666664" transform="translate(261,478)"/>
<path d="M0 0 C1.32 0.66 2.64 1.32 4 2 C4 3.66666667 4 5.33333333 4 7 C3.01 7 2.02 7 1 7 C1 7.66 1 8.32 1 9 C0.01 9 -0.98 9 -2 9 C-2 8.34 -2 7.68 -2 7 C-2.7425 7.350625 -3.485 7.70125 -4.25 8.0625 C-7.21122875 9.0720098 -8.12062561 8.87980884 -11 8 C-10.37351562 7.59007812 -9.74703125 7.18015625 -9.1015625 6.7578125 C-8.28429687 6.21898437 -7.46703125 5.68015625 -6.625 5.125 C-5.40683594 4.32449219 -5.40683594 4.32449219 -4.1640625 3.5078125 C-1.92405904 2.04134945 -1.92405904 2.04134945 0 0 Z " fill="#F3340D" transform="translate(693,413)"/>
<path d="M0 0 C0.33 0 0.66 0 1 0 C1.05880804 3.16658663 1.09386406 6.33302993 1.125 9.5 C1.14175781 10.386875 1.15851562 11.27375 1.17578125 12.1875 C1.2172205 17.82323788 0.60441286 22.59300232 -1 28 C-1.33 28 -1.66 28 -2 28 C-2 24.7 -2 21.4 -2 18 C-2.66 18 -3.32 18 -4 18 C-4 16.68 -4 15.36 -4 14 C-3.34 14 -2.68 14 -2 14 C-0.64908472 11.29816945 -0.66141942 8.88191794 -0.4375 5.875 C-0.35371094 4.77929688 -0.26992188 3.68359375 -0.18359375 2.5546875 C-0.12300781 1.71164062 -0.06242188 0.86859375 0 0 Z " fill="#E14427" transform="translate(795,454)"/>
<path d="M0 0 C0.33 0 0.66 0 1 0 C1.53132389 2.58157368 2.05034379 5.16461756 2.5625 7.75 C2.78969727 8.84441406 2.78969727 8.84441406 3.02148438 9.9609375 C3.74557178 13.66557073 4.09817231 16.39322322 3 20 C2.67 20 2.34 20 2 20 C1.67 21.65 1.34 23.3 1 25 C0.67 25 0.34 25 0 25 C0 16.75 0 8.5 0 0 Z " fill="#00AC40" transform="translate(425,452)"/>
<path d="M0 0 C0.33 0 0.66 0 1 0 C1 8.25 1 16.5 1 25 C0.67 25 0.34 25 0 25 C-0.33 22.36 -0.66 19.72 -1 17 C-1.66 17.33 -2.32 17.66 -3 18 C-2 12 -1 6 0 0 Z " fill="#00B644" transform="translate(442,452)"/>
<path d="M0 0 C3.53372712 1.96318174 6.24479785 4.04070881 9 7 C7.68 7 6.36 7 5 7 C4.67 7.99 4.34 8.98 4 10 C0 4.5 0 4.5 0 0 Z " fill="#EB3B16" transform="translate(765,401)"/>
<path d="M0 0 C-1.98 2.97 -1.98 2.97 -4 6 C-4.66 5.34 -5.32 4.68 -6 4 C-5.67 3.01 -5.34 2.02 -5 1 C-5.99 1.495 -5.99 1.495 -7 2 C-9.3329866 2.04022391 -11.66706666 2.04320247 -14 2 C-11.17457671 0.11638447 -10.18940682 -0.31902686 -7 -0.6875 C-5.9790625 -0.81705078 -5.9790625 -0.81705078 -4.9375 -0.94921875 C-3 -1 -3 -1 0 0 Z " fill="#D84412" transform="translate(733,400)"/>
<path d="M0 0 C0.66 0.99 1.32 1.98 2 3 C-2.95 3 -7.9 3 -13 3 C-8.33084754 0.66542377 -5.20803916 -0.44323738 0 0 Z " fill="#2B8629" transform="translate(754,392)"/>
<path d="M0 0 C0.66 0.33 1.32 0.66 2 1 C0.73657512 2.48549956 -0.5360103 3.96321189 -1.8125 5.4375 C-2.52019531 6.26121094 -3.22789062 7.08492188 -3.95703125 7.93359375 C-6 10 -6 10 -9 11 C-7.59155282 7.78475695 -5.89655214 5.67816132 -3.375 3.25 C-2.74335938 2.63640625 -2.11171875 2.0228125 -1.4609375 1.390625 C-0.73777344 0.70226562 -0.73777344 0.70226562 0 0 Z " fill="#C6C6C5" transform="translate(173,418)"/>
<path d="M0 0 C0.66 0.33 1.32 0.66 2 1 C0.73657512 2.48549956 -0.5360103 3.96321189 -1.8125 5.4375 C-2.52019531 6.26121094 -3.22789062 7.08492188 -3.95703125 7.93359375 C-6 10 -6 10 -9 11 C-7.59155282 7.78475695 -5.89655214 5.67816132 -3.375 3.25 C-2.74335938 2.63640625 -2.11171875 2.0228125 -1.4609375 1.390625 C-0.73777344 0.70226562 -0.73777344 0.70226562 0 0 Z " fill="#C6C6C6" transform="translate(216,375)"/>
<path d="M0 0 C3.16115776 1.36983503 3.9927092 1.9890638 6 5 C3.36 5.66 0.72 6.32 -2 7 C-2.33 6.34 -2.66 5.68 -3 5 C-2.34 4.34 -1.68 3.68 -1 3 C-0.67 2.01 -0.34 1.02 0 0 Z " fill="#0B8E3C" transform="translate(714,367)"/>
<path d="M0 0 C0 3 0 3 -1.5625 5.625 C-4.64516511 8.62862242 -6.7837853 8.75675684 -11 9 C-8.23352293 6.02859871 -5.50322987 4.02818571 -2 2 C-1.34 1.34 -0.68 0.68 0 0 Z " fill="#916526" transform="translate(693,413)"/>
<path d="M0 0 C2.0625 0.4375 2.0625 0.4375 4 1 C2 3 2 3 0.02880859 3.22705078 C-0.75671387 3.21657715 -1.54223633 3.20610352 -2.3515625 3.1953125 C-3.20234375 3.18886719 -4.053125 3.18242187 -4.9296875 3.17578125 C-6.26386719 3.15064453 -6.26386719 3.15064453 -7.625 3.125 C-8.97078125 3.11146484 -8.97078125 3.11146484 -10.34375 3.09765625 C-12.56276586 3.0740497 -14.78125077 3.0411231 -17 3 C-17 2.67 -17 2.34 -17 2 C-15.85660156 1.93941406 -14.71320312 1.87882812 -13.53515625 1.81640625 C-12.04425695 1.73201572 -10.55337225 1.64736698 -9.0625 1.5625 C-8.30775391 1.52318359 -7.55300781 1.48386719 -6.77539062 1.44335938 C-3.08055813 1.55961976 -3.08055813 1.55961976 0 0 Z " fill="#B85922" transform="translate(658,411)"/>
<path d="M0 0 C-0.625 1.875 -0.625 1.875 -2 4 C-5.57596926 5.50985369 -9.18507894 6.32677864 -13 7 C-11.60643954 4.21287908 -9.83494327 3.73536671 -7.0625 2.375 C-6.16660156 1.92898438 -5.27070313 1.48296875 -4.34765625 1.0234375 C-2 0 -2 0 0 0 Z " fill="#D35C07" transform="translate(274,541)"/>
<path d="M0 0 C0.33 0 0.66 0 1 0 C1.33 3.3 1.66 6.6 2 10 C0.68 8.68 -0.64 7.36 -2 6 C-1.34 4.02 -0.68 2.04 0 0 Z M-2 7 C-1.67 7 -1.34 7 -1 7 C-1 8.65 -1 10.3 -1 12 C-1.33 12 -1.66 12 -2 12 C-2 10.35 -2 8.7 -2 7 Z " fill="#E13C1D" transform="translate(793,444)"/>
<path d="M0 0 C0.33 0 0.66 0 1 0 C1.33 2.97 1.66 5.94 2 9 C1.01 9.495 1.01 9.495 0 10 C-2 7 -2 7 -1.6875 4.4375 C-1 2 -1 2 0 0 Z " fill="#E7401E" transform="translate(791,435)"/>
<path d="M0 0 C2.39763185 2.39763185 2.34280586 3.33273498 2.625 6.625 C2.69976562 7.44226563 2.77453125 8.25953125 2.8515625 9.1015625 C2.90054687 9.72804688 2.94953125 10.35453125 3 11 C2.01 11 1.02 11 0 11 C0 7.37 0 3.74 0 0 Z " fill="#00C248" transform="translate(426,461)"/>
<path d="M0 0 C2.76223278 2.76223278 2.57856291 5.20706617 3 9 C2.01 9.33 1.02 9.66 0 10 C-0.99 9.01 -1.98 8.02 -3 7 C-1.68 7 -0.36 7 1 7 C0.67 4.69 0.34 2.38 0 0 Z " fill="#613C24" transform="translate(313,420)"/>
<path d="M0 0 C2 3 2 3 1.75 5.5625 C1 8 1 8 -1 10 C-2.23076923 4.58461538 -2.23076923 4.58461538 -1.0625 1.625 C-0.5365625 0.820625 -0.5365625 0.820625 0 0 Z " fill="#E26705" transform="translate(122,419)"/>
<path d="M0 0 C0.99 0 1.98 0 3 0 C3 2.31 3 4.62 3 7 C2.01 7 1.02 7 0 7 C-0.38133299 5.0085944 -0.71325582 3.00720923 -1 1 C-0.67 0.67 -0.34 0.34 0 0 Z " fill="#F63007" transform="translate(670,406)"/>
<path d="M0 0 C0.99 0.33 1.98 0.66 3 1 C3 1.99 3 2.98 3 4 C2.34 4 1.68 4 1 4 C0.67 4.99 0.34 5.98 0 7 C-1.32 5.35 -2.64 3.7 -4 2 C-1.525 2.495 -1.525 2.495 1 3 C0.67 2.01 0.34 1.02 0 0 Z " fill="#E53A16" transform="translate(638,516)"/>
<path d="M0 0 C1.32 1.32 2.64 2.64 4 4 C2.03533587 5.06775224 0.03144641 6.06553465 -2 7 C-2.66 6.67 -3.32 6.34 -4 6 C-3.67 5.34 -3.34 4.68 -3 4 C-2.34 4 -1.68 4 -1 4 C-0.67 2.68 -0.34 1.36 0 0 Z " fill="#E44328" transform="translate(630,413)"/>
<path d="M0 0 C1.32 0 2.64 0 4 0 C2.8141763 3.37503669 1.72426311 5.64722731 -1 8 C-0.67 6.35 -0.34 4.7 0 3 C0.66 3 1.32 3 2 3 C2 2.34 2 1.68 2 1 C1.34 0.67 0.68 0.34 0 0 Z " fill="#E03B1D" transform="translate(783,499)"/>
<path d="M0 0 C0.6875 1.625 0.6875 1.625 1 4 C-0.4375 7.25 -0.4375 7.25 -2 10 C-2.6875 8.375 -2.6875 8.375 -3 6 C-1.5625 2.75 -1.5625 2.75 0 0 Z " fill="#DA462C" transform="translate(621,427)"/>
<path d="M0 0 C1.9453125 -0.29296875 1.9453125 -0.29296875 4.125 -0.1875 C5.40375 -0.125625 6.6825 -0.06375 8 0 C8 0.33 8 0.66 8 1 C6.35 1 4.7 1 3 1 C3 1.66 3 2.32 3 3 C1.35 3 -0.3 3 -2 3 C-1.34 2.01 -0.68 1.02 0 0 Z " fill="#537B2F" transform="translate(727,397)"/>
<path d="M0 0 C3.37503669 1.1858237 5.64722731 2.27573689 8 5 C5.03 4.505 5.03 4.505 2 4 C2 3.34 2 2.68 2 2 C1.34 2 0.68 2 0 2 C0 1.34 0 0.68 0 0 Z " fill="#158C42" transform="translate(745,387)"/>
</svg>
